<?xml version="1.0" encoding="utf-8"?>
<!-- Generator: Adobe Illustrator 24.0.2, SVG Export Plug-In . SVG Version: 6.00 Build 0)  -->
<svg version="1.1" id="e0434867-4dbf-4b6d-811e-d575985e7b91"
	 xmlns="http://www.w3.org/2000/svg" xmlns:xlink="http://www.w3.org/1999/xlink" x="0px" y="0px" viewBox="0 0 873.5 661.9"
	 style="enable-background:new 0 0 873.5 661.9;" xml:space="preserve">
<style type="text/css">
	.st0{fill:#70002E;}
	.st1{fill:#FFFFFF;}
	.st2{fill:url(#SVGID_1_);}
	.st3{fill:url(#SVGID_2_);}
	.st4{opacity:0.2;enable-background:new    ;}
</style>
<title>Checklist</title>
<polygon class="st0" points="104.3,152.7 783.4,39.6 783.4,373.7 104.3,395.3 "/>
<path class="st1" d="M219.2,238.6c0-38-17.1-66.4-37.7-63.6c-20.2,2.8-36.4,34.6-36.4,71.2s16.1,65.1,36.4,63.7
	C202.1,308.5,219.2,276.5,219.2,238.6z"/>
<linearGradient id="SVGID_1_" gradientUnits="userSpaceOnUse" x1="271.182" y1="484.1407" x2="677.292" y2="484.1407" gradientTransform="matrix(1 0 0 -1 0 664)">
	<stop  offset="0" style="stop-color:#DADADA"/>
	<stop  offset="1" style="stop-color:#FFFFFF"/>
</linearGradient>
<polygon class="st2" points="677.3,172.4 271.2,217.4 271.2,192.2 677.3,142.3 "/>
<linearGradient id="SVGID_2_" gradientUnits="userSpaceOnUse" x1="271.182" y1="419.4642" x2="677.292" y2="419.4642" gradientTransform="matrix(1 0 0 -1 0 664)">
	<stop  offset="0" style="stop-color:#DADADA"/>
	<stop  offset="1" style="stop-color:#FFFFFF"/>
</linearGradient>
<polygon class="st3" points="677.3,237.1 271.2,282.1 271.2,256.9 677.3,207 "/>
<polygon class="st0" points="148.7,241.1 163.7,238.8 178.7,253.8 196,221.5 214.4,221.5 178.7,266.5 "/>
<polygon class="st4" points="148.7,241.1 163.7,238.8 178.7,253.8 196,221.5 214.4,221.5 178.7,266.5 "/>
</svg>
