<?xml version="1.0" encoding="utf-8"?>
<!-- Generator: Adobe Illustrator 24.0.2, SVG Export Plug-In . SVG Version: 6.00 Build 0)  -->
<svg version="1.1" id="b4b2b9fe-f942-49b6-919a-816d625fc7ce"
	 xmlns="http://www.w3.org/2000/svg" xmlns:xlink="http://www.w3.org/1999/xlink" x="0px" y="0px" viewBox="0 0 1055.5 670.2"
	 style="enable-background:new 0 0 1055.5 670.2;" xml:space="preserve">
<style type="text/css">
	.st0{fill:#F2F2F2;}
	.st1{fill:#70002E;}
	.st2{fill:#3F3D56;}
</style>
<title>fill_in</title>
<path class="st0" d="M0,119.2v296h476v-296L0,119.2z M374.3,325.8c0,6.6-5.4,12-12,12h-58c-6.6,0-12-5.4-12-12v-3
	c0-6.6,5.4-12,12-12h58c6.6,0,12,5.4,12,12V325.8z"/>
<rect x="682.3" y="159.3" transform="matrix(0.9327 -0.3607 0.3607 0.9327 -15.8497 263.4359)" class="st1" width="30.9" height="29.8"/>
<path class="st2" d="M712.4,180.3L682,192.1l-11.3-29.3l30.3-11.7L712.4,180.3z M683,190l27.3-10.6l-10.2-26.4l-27.3,10.6L683,190z"
	/>
<rect x="232.6" y="522.8" transform="matrix(0.9457 -0.3251 0.3251 0.9457 -161.5443 109.7031)" class="st1" width="29.8" height="30.9"/>
<path class="st2" d="M240.8,552.6l-10.6-30.8l29.7-10.2l10.6,30.8L240.8,552.6z M232.2,522.8l9.5,27.7l26.7-9.2l-9.5-27.7
	L232.2,522.8z"/>
<path class="st2" d="M515.5,386.7h-478v-298h478V386.7z M39.5,384.7h474v-294h-474V384.7z"/>
<rect x="540" y="374.2" class="st0" width="476" height="296"/>
<path class="st2" d="M1055.5,641.7h-478v-298h478V641.7z M579.5,639.7h474v-294h-474V639.7z"/>
<path class="st2" d="M160.8,257.8h208c6.6,0,12,5.4,12,12v3c0,6.6-5.4,12-12,12h-208c-6.6,0-12-5.4-12-12v-3
	C148.8,263.2,154.1,257.8,160.8,257.8z"/>
<path class="st2" d="M160.8,151.8h208c6.6,0,12,5.4,12,12v3c0,6.6-5.4,12-12,12h-208c-6.6,0-12-5.4-12-12v-3
	C148.8,157.2,154.1,151.8,160.8,151.8z"/>
<path class="st2" d="M160.8,204.8h208c6.6,0,12,5.4,12,12v3c0,6.6-5.4,12-12,12h-208c-6.6,0-12-5.4-12-12v-3
	C148.8,210.2,154.1,204.8,160.8,204.8z"/>
<path class="st2" d="M178,90l-1.3-0.5c-0.3-0.1-28-10.7-41-34.8c-13-24.1-6.6-53.1-6.6-53.4l0.3-1.3l1.3,0.5
	c0.3,0.1,28,10.7,41,34.8c13,24.1,6.6,53.1,6.6,53.4L178,90z M137.9,53.6c11,20.4,32.9,30.8,38.4,33.2c1.1-5.9,4.4-30-6.6-50.3
	c-11-20.3-32.9-30.8-38.4-33.2C130.2,9.2,126.9,33.2,137.9,53.6L137.9,53.6z"/>
<path class="st1" d="M145.7,46.2c23.3,14,32.3,41.9,32.3,41.9s-28.8,5.1-52.2-8.9S93.6,37.3,93.6,37.3S122.4,32.2,145.7,46.2z"/>
</svg>
