<?xml version="1.0" encoding="utf-8"?>
<!-- Generator: Adobe Illustrator 24.0.2, SVG Export Plug-In . SVG Version: 6.00 Build 0)  -->
<svg version="1.1" id="b1dd317e-8fb9-42d0-9880-4f9abd167789"
	 xmlns="http://www.w3.org/2000/svg" xmlns:xlink="http://www.w3.org/1999/xlink" x="0px" y="0px" viewBox="0 0 987.9 646.5"
	 style="enable-background:new 0 0 987.9 646.5;" xml:space="preserve">
<style type="text/css">
	.st0{fill:#F2F2F2;}
	.st1{fill:#2F2E41;}
	.st2{fill:#3F3D56;}
	.st3{fill:#70002E;}
	.st4{opacity:0.1;enable-background:new    ;}
</style>
<title>chore_list</title>
<circle class="st0" cx="293.9" cy="495.2" r="145"/>
<rect x="24.4" y="640.4" class="st1" width="963.5" height="2.2"/>
<path class="st2" d="M287.8,496.1c0,108.4-64.4,146.2-143.9,146.2c-1.9,0-3.7,0-5.5-0.1c-3.7-0.1-7.3-0.2-10.9-0.5
	C55.7,636.7,0,596.9,0,496.1c0-104.3,133.2-235.9,143.3-245.6c0,0,0,0,0,0c0.4-0.4,0.6-0.6,0.6-0.6S287.8,387.8,287.8,496.1z"/>
<path class="st0" d="M138.6,625.8l52.6-73.5l-52.8,81.6l-0.1,8.4c-3.7-0.1-7.3-0.2-10.9-0.5l5.7-108.4l0-0.8l0.1-0.2l0.5-10.2
	l-52.9-81.8l53.1,74.1l0.1,2.2l4.3-81.9L93,350.2l45.8,70.1l4.5-169.8l0-0.6v0.6l-0.7,133.9l45.1-53.1l-45.3,64.6l-1.2,73.3
	l42.1-70.4L141,480.1l-0.7,40.8l61.1-98l-61.3,112.2L138.6,625.8z"/>
<path class="st2" d="M736.1,0H495.5c-23.9,0-44.6,16.6-49.9,39.9L324.1,579.2c-5,22.3,9,44.4,31.2,49.4c2.3,0.5,4.7,0.8,7.1,1
	l247.4,12.2c27.4,1.3,51.5-17.8,56.4-44.8l69-381.3l5.1,1.5l13.2-72.3l-5.3-1.3l19.3-106.4C770.5,20,759.1,3.6,742,0.5
	C740.1,0.2,738.1,0,736.1,0z"/>
<path class="st3" d="M527.2,11.6h-28.1c-16.6,0-31,11.6-34.5,27.8L347.9,574.3c-2.6,11.8,4.9,23.5,16.7,26.1
	c1.1,0.2,2.1,0.4,3.2,0.5L614.4,617c14.4,0.9,27.2-9.1,29.8-23.3l99.6-552.8c2.4-13.5-6.5-26.4-20-28.9c-1.5-0.3-2.9-0.4-4.4-0.4
	h-26.6c-5.3,0-9.9,3.6-11.3,8.7l0,0c-1.2,4.5-5.3,7.7-10,7.7H544.9C535.6,28,527.9,20.8,527.2,11.6L527.2,11.6z"/>
<rect x="448.7" y="149.9" class="st1" width="255.1" height="1.3"/>
<rect x="438.6" y="190.7" class="st1" width="257.6" height="1.3"/>
<polygon class="st1" points="687.7,147.9 681.9,140.2 682.9,139.4 687.9,146.1 707.2,130.3 708,131.3 "/>
<polygon class="st1" points="654.4,330.1 648.6,322.4 649.6,321.6 654.6,328.3 673.9,312.5 674.7,313.5 "/>
<rect x="543.2" y="200.1" transform="matrix(2.117175e-02 -0.9998 0.9998 2.117175e-02 198.7465 870.3496)" class="st1" width="1.3" height="267.1"/>
<rect x="537.6" y="235" transform="matrix(2.308849e-02 -0.9997 0.9997 2.308849e-02 154.8143 900.5587)" class="st1" width="1.3" height="272.2"/>
<path class="st4" d="M569,474.4c0,33-26.7,59.7-59.7,59.7c-33,0-59.7-26.7-59.7-59.7c0-0.7,0-1.5,0-2.2
	c1.2-32.9,28.9-58.7,61.9-57.4C543.6,416,569,442.3,569,474.4z"/>
<path class="st4" d="M563.3,497.7c0,0.7,0,1.5,0,2.2c-14.1,29.8-49.7,42.6-79.5,28.5c-20.9-9.9-34.2-30.9-34.2-54c0-0.7,0-1.5,0-2.2
	c14.1-29.8,49.7-42.6,79.5-28.5C550,453.6,563.3,474.6,563.3,497.7L563.3,497.7z"/>
<polygon class="st0" points="497.2,490.9 476,462.6 481,458.8 498.3,481.8 566.4,426.2 570.4,431 "/>
</svg>
