<?xml version="1.0" encoding="utf-8"?>
<!-- Generator: Adobe Illustrator 24.0.2, SVG Export Plug-In . SVG Version: 6.00 Build 0)  -->
<svg version="1.1" id="_x35_3917d2c-59b7-443c-9dc6-ca37ebed1a74"
	 xmlns="http://www.w3.org/2000/svg" xmlns:xlink="http://www.w3.org/1999/xlink" x="0px" y="0px" viewBox="0 0 965.6 800.8"
	 style="enable-background:new 0 0 965.6 800.8;" xml:space="preserve">
<style type="text/css">
	.st0{opacity:0.1;fill:#6C63FF;enable-background:new    ;}
	.st1{fill:none;stroke:#535461;stroke-width:2;stroke-miterlimit:10;}
	.st2{fill:#6C63FF;}
	.st3{fill:#FFD037;}
	.st4{fill:url(#SVGID_1_);}
	.st5{fill:#F7F7FD;}
	.st6{fill:#E2E2EC;}
	.st7{fill:#FFFFFF;}
	.st8{fill:#FC6681;}
</style>
<title>events</title>
<path class="st0" d="M901.9,442.5c-37.1,60-30.1,141.7-13.8,206.2c5.5,21.6,11.7,44.4,7.1,68.5c-5.7,29.5-26.5,52.7-47.5,66
	c-38.3,24.2-82.1,23.5-114-1.8c-27.5-21.8-45.7-59.8-73.8-80.5c-47-34.5-111.5-13.6-167.6,18.7c-39.6,22.8-83.3,51.8-119.9,35.4
	c-25.8-11.5-41.8-44.1-49.3-79.5c-3.6-17.1-5.8-35.8-14.1-48.8c-4.9-7.7-11.7-12.9-18.8-17.2C225.9,570.8,139,603.2,77,559.4
	c-41.8-29.6-65.6-90.8-73.5-156.2s-1.4-135.4,6.7-204.3c5.7-49,13.5-101.4,39.2-141.3c27.2-42.2,70.1-61,107.4-57
	s69.6,27.6,97.5,56.5c34.9,36.1,66.3,82.2,111.5,93.8c30.7,7.9,64.3-1.3,97-6.4c54.6-8.7,108.4-6.2,161.8-2.9
	c51.2,3.1,102.6,7,150.3,25c33.7,12.8,59.6,39.3,91.1,56.6c20.5,11.3,43.7,12.7,62.8,27.7c23.6,18.5,43.9,52.6,34.5,95.7
	C954.3,387.4,921.6,410.7,901.9,442.5z"/>
<path class="st1" d="M664.5,306.9c0,0,101-84.6,123.5-127.3s51-79.4,51-79.4"/>
<path class="st2" d="M825.7,195.5l-43.7-9.9C782,185.7,792.3,231.8,825.7,195.5z"/>
<path class="st2" d="M759,148.5l25.1,37.7C784.1,186.1,735,189.7,759,148.5z"/>
<path class="st2" d="M842.9,160.1l-39.9-7C803,153.1,828.1,191.3,842.9,160.1z"/>
<path class="st2" d="M783.8,126.5l19.7,25.8C803.5,152.3,768.7,155.6,783.8,126.5z"/>
<path class="st2" d="M823.6,121.4c0,0,34,1.6,38,4.9s-5.1,22.3-18,19.2S823.6,121.4,823.6,121.4z"/>
<path class="st2" d="M810,91c0,0,13.9,25.3,13.4,30.1s-21.2,10.2-25.3-8S810,91,810,91z"/>
<ellipse transform="matrix(0.3011 -0.9536 0.9536 0.3011 487.5323 880.1285)" class="st3" cx="844.2" cy="107.5" rx="9.5" ry="9.5"/>
<ellipse transform="matrix(0.3011 -0.9536 0.9536 0.3011 486.4667 859.2153)" class="st3" cx="829.4" cy="97.7" rx="9.5" ry="9.5"/>
<path class="st2" d="M349.5,638.6c0,0,16.2-48.2-86.6-106.3c0,0-104.3-30.4-93.7-134.9c0,0-120.3,88.1-38.9,200.4
	S282,685.5,282,685.5L349.5,638.6z"/>
<path class="st1" d="M318.1,660.4c0,0-50.1-54.2-98.2-75.1c-9.6-4.3-18.4-10.2-26.1-17.4c-30.6-28-44-70.2-36.1-111l11.5-59.5"/>
<linearGradient id="SVGID_1_" gradientUnits="userSpaceOnUse" x1="478.375" y1="104.27" x2="478.375" y2="766.8" gradientTransform="matrix(1 0 0 -1 0 800)">
	<stop  offset="0" style="stop-color:#808080;stop-opacity:0.25"/>
	<stop  offset="0.54" style="stop-color:#808080;stop-opacity:0.12"/>
	<stop  offset="1" style="stop-color:#808080;stop-opacity:0.1"/>
</linearGradient>
<rect x="193.1" y="33.2" class="st4" width="570.6" height="662.5"/>
<rect x="199.7" y="40.9" class="st5" width="557.3" height="647.1"/>
<rect x="233.4" y="113.8" class="st6" width="140.9" height="11.2"/>
<rect x="233.4" y="141.3" class="st6" width="240.6" height="11.2"/>
<rect x="630.4" y="103.1" class="st7" width="100" height="86.3"/>
<path class="st6" d="M729.8,103.6v85.3h-99v-85.3H729.8 M730.8,102.6h-101v87.3h101V102.6z"/>
<rect x="529.4" y="103.1" class="st7" width="100" height="86.3"/>
<path class="st6" d="M628.8,103.6v85.3h-99v-85.3H628.8 M629.8,102.6h-101v87.3h101V102.6z"/>
<rect x="630.4" y="190.4" class="st7" width="100" height="86.3"/>
<path class="st6" d="M729.8,190.9v85.3h-99v-85.3H729.8 M730.8,189.9h-101v87.3h101V189.9z"/>
<rect x="529.4" y="190.4" class="st7" width="100" height="86.3"/>
<path class="st6" d="M628.8,190.9v85.3h-99v-85.3H628.8 M629.8,189.9h-101v87.3h101V189.9z"/>
<rect x="428.4" y="190.4" class="st7" width="100" height="86.3"/>
<path class="st6" d="M527.9,190.9v85.3h-99v-85.3H527.9 M528.9,189.9h-101v87.3h101V189.9z"/>
<rect x="327.4" y="190.4" class="st7" width="100" height="86.3"/>
<path class="st6" d="M426.9,190.9v85.3h-99v-85.3H426.9 M427.9,189.9h-101v87.3h101V189.9z"/>
<rect x="226.4" y="190.4" class="st7" width="100" height="86.3"/>
<path class="st6" d="M325.9,190.9v85.3h-99v-85.3H325.9 M326.9,189.9h-101v87.3h101V189.9z"/>
<rect x="630.4" y="277.7" class="st7" width="100" height="86.3"/>
<path class="st6" d="M729.8,278.2v85.3h-99v-85.3H729.8 M730.8,277.2h-101v87.3h101V277.2z"/>
<rect x="529.4" y="277.7" class="st7" width="100" height="86.3"/>
<path class="st6" d="M628.8,278.2v85.3h-99v-85.3H628.8 M629.8,277.2h-101v87.3h101V277.2z"/>
<rect x="428.4" y="277.7" class="st7" width="100" height="86.3"/>
<path class="st6" d="M527.9,278.2v85.3h-99v-85.3H527.9 M528.9,277.2h-101v87.3h101V277.2z"/>
<rect x="327.4" y="277.7" class="st7" width="100" height="86.3"/>
<path class="st6" d="M426.9,278.2v85.3h-99v-85.3H426.9 M427.9,277.2h-101v87.3h101V277.2z"/>
<rect x="226.4" y="277.7" class="st7" width="100" height="86.3"/>
<path class="st6" d="M325.9,278.2v85.3h-99v-85.3H325.9 M326.9,277.2h-101v87.3h101V277.2z"/>
<rect x="630.4" y="365" class="st7" width="100" height="86.3"/>
<path class="st6" d="M729.8,365.5v85.3h-99v-85.3H729.8 M730.8,364.5h-101v87.3h101V364.5z"/>
<rect x="529.4" y="365" class="st7" width="100" height="86.3"/>
<path class="st6" d="M628.8,365.5v85.3h-99v-85.3H628.8 M629.8,364.5h-101v87.3h101V364.5z"/>
<rect x="428.4" y="365" class="st7" width="100" height="86.3"/>
<path class="st6" d="M527.9,365.5v85.3h-99v-85.3H527.9 M528.9,364.5h-101v87.3h101V364.5z"/>
<rect x="327.4" y="365" class="st7" width="100" height="86.3"/>
<path class="st6" d="M426.9,365.5v85.3h-99v-85.3H426.9 M427.9,364.5h-101v87.3h101V364.5z"/>
<rect x="226.4" y="365" class="st7" width="100" height="86.3"/>
<path class="st6" d="M325.9,365.5v85.3h-99v-85.3H325.9 M326.9,364.5h-101v87.3h101V364.5z"/>
<rect x="630.4" y="452.2" class="st7" width="100" height="86.3"/>
<path class="st6" d="M729.8,452.7V538h-99v-85.3H729.8 M730.8,451.7h-101V539h101V451.7z"/>
<rect x="529.4" y="452.2" class="st7" width="100" height="86.3"/>
<path class="st6" d="M628.8,452.7V538h-99v-85.3H628.8 M629.8,451.7h-101V539h101V451.7z"/>
<rect x="428.4" y="452.2" class="st7" width="100" height="86.3"/>
<path class="st6" d="M527.9,452.7V538h-99v-85.3H527.9 M528.9,451.7h-101V539h101V451.7z"/>
<rect x="327.4" y="452.2" class="st7" width="100" height="86.3"/>
<path class="st6" d="M426.9,452.7V538h-99v-85.3H426.9 M427.9,451.7h-101V539h101V451.7z"/>
<rect x="226.4" y="452.2" class="st7" width="100" height="86.3"/>
<path class="st6" d="M325.9,452.7V538h-99v-85.3H325.9 M326.9,451.7h-101V539h101V451.7z"/>
<rect x="630.4" y="539.5" class="st7" width="100" height="86.3"/>
<path class="st6" d="M729.8,540v85.3h-99V540H729.8 M730.8,539h-101v87.3h101V539z"/>
<rect x="529.4" y="539.5" class="st7" width="100" height="86.3"/>
<path class="st6" d="M628.8,540v85.3h-99V540H628.8 M629.8,539h-101v87.3h101V539z"/>
<rect x="428.4" y="539.5" class="st7" width="100" height="86.3"/>
<path class="st6" d="M527.9,540v85.3h-99V540H527.9 M528.9,539h-101v87.3h101V539z"/>
<rect x="327.4" y="539.5" class="st7" width="100" height="86.3"/>
<path class="st6" d="M426.9,540v85.3h-99V540H426.9 M427.9,539h-101v87.3h101V539z"/>
<rect x="226.4" y="539.5" class="st7" width="100" height="86.3"/>
<path class="st6" d="M325.9,540v85.3h-99V540H325.9 M326.9,539h-101v87.3h101V539z"/>
<path class="st2" d="M436.4,704.9c2.9-2.2,5.5-4.7,6.4-7.8c0.9-3.4-1.1-6.9-4.5-8c-4.1-1.3-8.5,1-11.8,3.4s-7.1,5-11.5,4.5
	c4.5-3.3,6.6-8.5,5.4-13.3c-0.2-1-0.7-2-1.5-2.7c-2.3-2-6.4-1.1-9.1,0.4c-8.7,5-11.1,14.5-11.1,23.2c-0.9-3.1-0.1-6.3-0.2-9.5
	s-1.1-6.7-4.4-8.5c-2.1-0.9-4.4-1.4-6.7-1.3c-3.9-0.1-8.2,0.2-10.9,2.5c-3.3,2.9-2.4,7.7,0.4,10.9s7.2,5.2,11.3,7.3
	c3.1,1.7,6.2,3.6,8,6.3c0.2,0.3,0.4,0.7,0.6,1.1h24.4C426.7,711.2,431.8,708.3,436.4,704.9z"/>
<circle class="st8" cx="239.6" cy="203.5" r="5.7"/>
<circle class="st3" cx="253.8" cy="203.5" r="5.7"/>
<circle class="st2" cx="440.9" cy="288" r="5.7"/>
<circle class="st2" cx="455.1" cy="288" r="5.7"/>
<circle class="st2" cx="645" cy="203.5" r="5.7"/>
<circle class="st2" cx="659.2" cy="203.5" r="5.7"/>
<circle class="st2" cx="673.5" cy="203.5" r="5.7"/>
<circle class="st2" cx="687.7" cy="203.5" r="5.7"/>
<circle class="st2" cx="645" cy="380.1" r="5.7"/>
<circle class="st2" cx="659.2" cy="380.1" r="5.7"/>
<circle class="st2" cx="673.5" cy="380.1" r="5.7"/>
<circle class="st2" cx="687.7" cy="380.1" r="5.7"/>
<circle class="st3" cx="340.2" cy="288" r="5.7"/>
<circle class="st8" cx="239.6" cy="374.4" r="5.7"/>
</svg>
