<?xml version="1.0" encoding="utf-8"?>
<!-- Generator: Adobe Illustrator 24.0.2, SVG Export Plug-In . SVG Version: 6.00 Build 0)  -->
<svg version="1.1" id="d6af144a-e925-4ddf-847c-b38e3205da29"
	 xmlns="http://www.w3.org/2000/svg" xmlns:xlink="http://www.w3.org/1999/xlink" x="0px" y="0px" viewBox="0 0 903.8 657.1"
	 style="enable-background:new 0 0 903.8 657.1;" xml:space="preserve">
<style type="text/css">
	.st0{opacity:0.1;enable-background:new    ;}
	.st1{fill:none;stroke:#535461;stroke-width:2;stroke-miterlimit:10;}
	.st2{fill:#6C63FF;}
	.st3{fill:#40414D;}
	.st4{fill:#DFE6F5;}
	.st5{fill:#FFD77C;stroke:#FFAB50;stroke-miterlimit:10;}
	.st6{fill:#F6C6CD;}
	.st7{opacity:0.1;fill:#FFFFFF;enable-background:new    ;}
	.st8{opacity:0.1;}
	.st9{fill:#FFFFFF;}
</style>
<title>eating_together</title>
<ellipse class="st0" cx="63.9" cy="514.6" rx="45" ry="16"/>
<ellipse class="st0" cx="790.8" cy="580.7" rx="45" ry="16"/>
<path class="st0" d="M532.9,18.4c-68.5,26.4-142.7,27.7-211.7,2.8C223.5-14.1,95.9-23.1,48.6,138.6C-32.1,414.8,133,513.4,133,513.4
	s115.3,25.8,179.1,72.5c90.7,66.3,201.7,88.5,306.3,57.4c66.9-19.9,124.2-52.5,140.6-105.9c45.8-149.3,16.7-239.1,99.7-278.4
	s36.8-185.2-22.2-188.5s-198,30.5-241-36.8C580.2,9.7,556.8,9.2,532.9,18.4z"/>
<path class="st1" d="M789,583c0,0,12-40.8-2.3-70.9c-6.1-12.6-7.9-26.8-5.2-40.5c1.3-6.5,3.2-12.9,5.7-19"/>
<path class="st2" d="M778.4,433.6c0,5,9.1,19.5,9.1,19.5s9.1-14.5,9.1-19.5c0-5-4.1-9.1-9.1-9.1S778.4,428.6,778.4,433.6
	L778.4,433.6z"/>
<path class="st2" d="M763.4,461.4c2.7,4.2,18.2,11.5,18.2,11.5s-0.3-17.1-3-21.3c-2.7-4.2-8.3-5.4-12.5-2.7
	C761.9,451.5,760.7,457.2,763.4,461.4L763.4,461.4z"/>
<path class="st2" d="M764.1,508.7c4.5,2.3,21.5,0.7,21.5,0.7s-8.9-14.6-13.3-16.9c-4.5-2.3-9.9-0.5-12.2,4S759.6,506.5,764.1,508.7
	L764.1,508.7z"/>
<path class="st2" d="M772.6,544.5c4,3,21.1,4.3,21.1,4.3s-6.3-15.9-10.3-18.9c-4-3-9.7-2.1-12.7,1.9
	C767.8,535.8,768.6,541.5,772.6,544.5L772.6,544.5z"/>
<path class="st2" d="M800.7,473.8c-3.6,3.5-20.3,7.1-20.3,7.1s4.1-16.6,7.7-20.1c3.6-3.5,9.3-3.4,12.8,0.2S804.2,470.3,800.7,473.8z
	"/>
<path class="st2" d="M810.2,515.7c-4.5,2.3-21.5,0.7-21.5,0.7s8.9-14.6,13.3-16.8c4.5-2.3,9.9-0.5,12.2,4S814.6,513.5,810.2,515.7
	L810.2,515.7z"/>
<path class="st2" d="M813.8,557.7c-4,3-21.1,4.3-21.1,4.3s6.3-15.9,10.3-18.9c4-3,9.7-2.1,12.7,1.9
	C818.7,549.1,817.8,554.7,813.8,557.7z"/>
<path class="st1" d="M63.9,514.7c0,0,25.7-87.1-4.8-151.3c-12.8-26.9-17-57.1-11.1-86.4c2.8-13.9,6.9-27.4,12.2-40.5"/>
<path class="st2" d="M41.2,195.9c0,10.7,19.3,41.7,19.3,41.7s19.3-31,19.3-41.7c0-10.7-8.6-19.3-19.3-19.4S41.2,185.2,41.2,195.9
	C41.2,195.9,41.2,195.9,41.2,195.9L41.2,195.9z"/>
<path class="st2" d="M9.3,255.1c5.8,9,38.9,24.5,38.9,24.5s-0.6-36.5-6.4-45.5c-6-8.8-18-11.1-26.9-5.1
	C6.3,234.8,3.9,246.3,9.3,255.1L9.3,255.1z"/>
<path class="st2" d="M10.6,356.2c9.5,4.8,45.9,1.5,45.9,1.5s-19-31.2-28.5-36c-9.5-4.8-21.2-1-26,8.6
	C-2.7,339.8,1.1,351.4,10.6,356.2L10.6,356.2L10.6,356.2z"/>
<path class="st2" d="M28.9,432.5c8.6,6.3,45,9.2,45,9.2s-13.4-34-22-40.3c-8.6-6.4-20.7-4.5-27,4S20.3,426.1,28.9,432.5L28.9,432.5z
	"/>
<path class="st2" d="M88.7,281.6c-7.7,7.4-43.4,15.1-43.4,15.1s8.7-35.5,16.4-42.9c7.7-7.5,19.9-7.3,27.4,0.4S96.4,274.1,88.7,281.6
	L88.7,281.6L88.7,281.6z"/>
<path class="st2" d="M109,371.1c-9.5,4.8-45.9,1.5-45.9,1.5s19-31.2,28.5-36c9.5-4.8,21.2-1,26,8.6S118.5,366.3,109,371.1L109,371.1
	L109,371.1z"/>
<path class="st2" d="M116.7,460.7c-8.6,6.3-45,9.2-45,9.2s13.4-34,22-40.3c8.6-6.4,20.7-4.5,27,4S125.3,454.4,116.7,460.7
	L116.7,460.7z"/>
<rect x="265.4" y="402.6" class="st3" width="13.6" height="194.9"/>
<rect x="562.3" y="402.6" class="st3" width="13.6" height="194.9"/>
<path class="st4" d="M260.3,386.8h314c12.2,0,22,9.8,22,22v2.9l0,0h-358l0,0v-2.9C238.3,396.6,248.1,386.8,260.3,386.8z"/>
<path class="st0" d="M259.3,386.8h314c12.2,0,22,9.8,22,22v2.9l0,0h-358l0,0v-2.9C237.3,396.6,247.1,386.8,259.3,386.8z"/>
<path class="st4" d="M260.3,382.2h314c12.2,0,22,9.8,22,22v2.9l0,0h-358l0,0v-2.9C238.3,392.1,248.1,382.2,260.3,382.2z"/>
<circle class="st5" cx="417.3" cy="339.2" r="27.2"/>
<circle class="st5" cx="417.3" cy="339.2" r="21.5"/>
<circle class="st5" cx="417.3" cy="339.2" r="16.4"/>
<circle class="st5" cx="417.3" cy="339.2" r="9.2"/>
<circle class="st5" cx="401.4" cy="353.9" r="27.2"/>
<circle class="st5" cx="401.4" cy="353.9" r="21.5"/>
<circle class="st5" cx="401.4" cy="353.9" r="16.4"/>
<circle class="st5" cx="401.4" cy="353.9" r="9.2"/>
<circle class="st5" cx="433.1" cy="353.9" r="27.2"/>
<circle class="st5" cx="433.1" cy="353.9" r="21.5"/>
<circle class="st5" cx="433.1" cy="353.9" r="16.4"/>
<circle class="st5" cx="433.1" cy="353.9" r="9.2"/>
<path class="st2" d="M360.6,346h113.3l0,0v5.3c0,22.1-17.9,40-40,40h-33.3c-22.1,0-40-17.9-40-40V346L360.6,346z"/>
<path class="st0" d="M463.7,346c-0.6,24.6-20.7,44.2-45.3,44.2h-22.5c3.3,0.7,6.6,1.1,10,1.1h22.7c25,0,45.3-20.3,45.3-45.3
	c0,0,0,0,0,0H463.7z"/>
<rect x="274.5" y="551" class="st3" width="294.6" height="13.6"/>
<rect x="152.2" y="503.6" class="st3" width="11.9" height="108.2"/>
<rect x="246.1" y="503.6" class="st3" width="11.9" height="108.2"/>
<path class="st6" d="M267.5,485.8c0,7.2-24.5,13.1-54.7,13.1s-53.5-5.8-53.5-13.1s23.3-13.1,53.5-13.1S267.5,478.6,267.5,485.8z"/>
<path class="st3" d="M142.7,485.8h124.8l0,0v10.9c0,5.8-4.7,10.5-10.5,10.5l0,0h-96.3c-9.9,0-18-8.1-18-18V485.8L142.7,485.8z"/>
<path class="st3" d="M121.5,360.7l2.6-0.6c3.8-0.9,7.5,1.5,8.4,5.3l31.2,138.1l0,0l-3.9,0.9c-6.8,1.5-13.6-2.7-15.1-9.6L116.2,369
	C115.3,365.3,117.7,361.5,121.5,360.7C121.5,360.7,121.5,360.7,121.5,360.7z"/>
<rect x="672.4" y="505.5" class="st3" width="11.9" height="108.2"/>
<rect x="578.5" y="505.5" class="st3" width="11.9" height="108.2"/>
<path class="st6" d="M569,487.7c0,7.2,24.5,13.1,54.7,13.1s53.5-5.8,53.5-13.1s-23.3-13.1-53.5-13.1S569,480.5,569,487.7z"/>
<path class="st3" d="M675.8,509.1h-96.3c-5.8,0-10.5-4.7-10.5-10.5v-10.9l0,0h124.8l0,0v3.4C693.8,501,685.8,509.1,675.8,509.1z"/>
<path class="st3" d="M676.8,506.3l-3.9-0.9l0,0l31.2-138.1c0.9-3.8,4.6-6.1,8.4-5.3l2.6,0.6c3.8,0.9,6.1,4.6,5.3,8.4l-28.4,125.8
	C690.4,503.5,683.6,507.8,676.8,506.3z"/>
<path class="st7" d="M656.2,559.5c1.4,3.3,1.9,6.9,1.4,10.4c-2.7,21.2-41.5,35.4-52.2,38c-5.6,1.4-11.7-1.9-14.2-5.8
	c1.6,4.6,8.7,9.2,15.1,7.6c10.6-2.7,49.5-16.8,52.2-38C659.1,567.4,658.3,563.2,656.2,559.5z"/>
<g class="st8">
	<path class="st9" d="M327.6,557.1c0.1-2.7,0.5-5.3,1.1-7.9l-0.5,0.2C327.8,552,327.5,554.5,327.6,557.1z"/>
	<path class="st9" d="M332.8,594.3c-8,0.5-33-11-38-17c-0.7-0.8-1.1-1.8-1.2-2.8c-0.3,1.7,0.1,3.5,1.2,4.8c5,6,30,17.5,38,17
		c8.5-0.5,37,1,38-12c0.1-0.4,0-0.7-0.1-1.1C368.3,595.2,341,593.8,332.8,594.3z"/>
</g>
</svg>
