<?xml version="1.0" encoding="utf-8"?>
<!-- Generator: Adobe Illustrator 24.0.2, SVG Export Plug-In . SVG Version: 6.00 Build 0)  -->
<svg version="1.1" id="ffb55883-6880-4c99-84fd-4a8eccb5f463"
	 xmlns="http://www.w3.org/2000/svg" xmlns:xlink="http://www.w3.org/1999/xlink" x="0px" y="0px" viewBox="0 0 887.5 444"
	 style="enable-background:new 0 0 887.5 444;" xml:space="preserve">
<style type="text/css">
	.st0{fill:#E6E6E6;}
	.st1{fill:#3F3D56;}
	.st2{fill:#70002E;}
	.st3{opacity:0.3;enable-background:new    ;}
</style>
<title>faq</title>
<rect x="229.1" y="34.8" class="st0" width="395" height="197.5"/>
<path class="st0" d="M596.5,405.6l9.4-2.7c1.7-4.3,3.1-8.7,4.2-13.1l-4.4-0.2l4.8-1.4c1.4-5.5,2-9.3,2-9.3s-19,5.7-33.3,16.7
	l-1.8,12.4l-1.7-9.5c-1.6,1.4-3,2.9-4.4,4.4c-13.8,15.8-19.7,33.1-13.4,38.7s22.7-2.8,36.4-18.6c4.3-5.1,7.7-10.9,10.2-17.1
	L596.5,405.6z"/>
<path class="st0" d="M242,349.2l-5.3-21c-9.5-4-19.1-7.5-29-10.4l-0.7,9.8l-2.7-10.8c-12.2-3.5-20.5-5-20.5-5s11.2,42.7,34.8,75.3
	l27.4,4.8l-21.3,3.1c3,3.6,6.1,6.9,9.5,10.1c34.2,31.8,72.4,46.4,85.2,32.6s-4.6-50.7-38.8-82.5c-10.6-9.9-23.9-17.8-37.3-24
	L242,349.2z"/>
<path class="st0" d="M292.7,326.4l6.3-20.8c-6-8.3-12.5-16.3-19.4-23.9l-5.6,8l3.2-10.6c-8.7-9.3-15-14.9-15-14.9
	s-12.5,42.3-9.2,82.4l21,18.3l-19.8-8.4c0.7,4.6,1.7,9.1,2.9,13.6c12.9,44.9,38,77.1,56.1,71.9s22.3-45.8,9.4-90.7
	c-4-13.9-11.3-27.6-19.5-39.8L292.7,326.4z"/>
<rect x="183.8" y="441.5" class="st1" width="520" height="2"/>
<path class="st1" d="M658.4,204.9h-397V5.4h397V204.9z M263.4,202.9h393V7.4h-393L263.4,202.9z"/>
<path class="st2" d="M458.8,167.7c0,8.9-7.2,16.1-16.2,16.1c-8.9,0-16.1-7.2-16.1-16.1c0-8.9,7.2-16.1,16.1-16.1
	C451.5,151.5,458.7,158.7,458.8,167.7C458.8,167.6,458.8,167.7,458.8,167.7z"/>
<path class="st3" d="M458.8,167.7c0,8.9-7.2,16.1-16.2,16.1c-8.9,0-16.1-7.2-16.1-16.1c0-8.9,7.2-16.1,16.1-16.1
	C451.5,151.5,458.7,158.7,458.8,167.7C458.8,167.6,458.8,167.7,458.8,167.7z"/>
<path class="st2" d="M488,86.3c0,5.3-1.1,10.5-3.2,15.3c-0.9,2.1-2,4.1-3.3,6c-2.6,3.8-5.8,7.3-9.4,10.2c-0.6,0.5-1.3,1.1-2.2,1.8
	c-1.1,0.9-2.4,1.7-3.9,2.7c-2.6,1.7-5.1,3.5-7.4,5.4c-1.4,1.1-2.6,2.4-3.6,3.9c-1.2,2.1-1.9,6.3-1.9,12.4v1h-27v-4.7
	c0-3.7,0.1-6.7,0.3-9.4c0.1-2.4,0.4-4.8,0.8-7.3c0.3-2.1,0.9-4.2,1.9-6c1.8-3,6-7,13-12.3c0.3-0.2,0.6-0.5,0.9-0.7
	c0.3-0.2,0.6-0.4,0.9-0.6c2.4-1.7,4.7-3.7,6.7-5.9c0.6-0.7,1.1-1.4,1.6-2.2l0.1-0.2c1.6-2.8,2.3-5.9,2.2-9.1c0-0.8,0-1.6-0.2-2.4
	c-0.3-3.1-1.8-6-4.1-8.1c-2.5-2.3-5.7-3.6-9.1-3.8c-0.4,0-0.8,0-1.2,0c-1.6,0-3.2,0.2-4.7,0.6c-2.9,0.7-5.5,2.3-7.4,4.6
	c-1,1.2-1.9,2.5-2.6,4c-2.4,5.5-3.9,11.2-4.5,17.1l-0.1,1l-25.4-6.8V81.6c0.1-0.5,0.3-0.9,0.4-1.3c1.6-5.6,4.2-10.9,7.6-15.6
	c1.5-2,3.1-3.9,4.9-5.6c0.4-0.4,0.9-0.9,1.4-1.3c3.1-2.7,6.4-4.9,10.1-6.6l0.3-0.1c6.9-3.2,14.4-4.8,22-4.7c0.8,0,1.7,0,2.6,0.1
	c7.6,0.2,15,2.1,21.7,5.5c3,1.6,5.8,3.5,8.4,5.7c7.2,5.9,11.9,14.4,13,23.7C487.9,82.9,488,84.6,488,86.3z"/>
<path class="st3" d="M488,86.3c0,5.3-1.1,10.5-3.2,15.3c-0.9,2.1-2,4.1-3.3,6c-2.6,3.8-5.8,7.3-9.4,10.2c-0.6,0.5-1.3,1.1-2.2,1.8
	c-1.1,0.9-2.4,1.7-3.9,2.7c-2.6,1.7-5.1,3.5-7.4,5.4c-1.4,1.1-2.6,2.4-3.6,3.9c-1.2,2.1-1.9,6.3-1.9,12.4v1h-27v-4.7
	c0-3.7,0.1-6.7,0.3-9.4c0.1-2.4,0.4-4.8,0.8-7.3c0.3-2.1,0.9-4.2,1.9-6c1.8-3,6-7,13-12.3c0.3-0.2,0.6-0.5,0.9-0.7
	c0.3-0.2,0.6-0.4,0.9-0.6c2.4-1.7,4.7-3.7,6.7-5.9c0.6-0.7,1.1-1.4,1.6-2.2l0.1-0.2c1.6-2.8,2.3-5.9,2.2-9.1c0-0.8,0-1.6-0.2-2.4
	c-0.3-3.1-1.8-6-4.1-8.1c-2.5-2.3-5.7-3.6-9.1-3.8c-0.4,0-0.8,0-1.2,0c-1.6,0-3.2,0.2-4.7,0.6c-2.9,0.7-5.5,2.3-7.4,4.6
	c-1,1.2-1.9,2.5-2.6,4c-2.4,5.5-3.9,11.2-4.5,17.1l-0.1,1l-25.4-6.8V81.6c0.1-0.5,0.3-0.9,0.4-1.3c1.6-5.6,4.2-10.9,7.6-15.6
	c1.5-2,3.1-3.9,4.9-5.6c0.4-0.4,0.9-0.9,1.4-1.3c3.1-2.7,6.4-4.9,10.1-6.6l0.3-0.1c6.9-3.2,14.4-4.8,22-4.7c0.8,0,1.7,0,2.6,0.1
	c7.6,0.2,15,2.1,21.7,5.5c3,1.6,5.8,3.5,8.4,5.7c7.2,5.9,11.9,14.4,13,23.7C487.9,82.9,488,84.6,488,86.3z"/>
<path class="st2" d="M447.8,167.7c0,8.9-7.2,16.1-16.2,16.1c-8.9,0-16.1-7.2-16.1-16.1c0-8.9,7.2-16.1,16.1-16.1
	C440.5,151.5,447.7,158.7,447.8,167.7C447.8,167.6,447.8,167.7,447.8,167.7z"/>
<path class="st2" d="M477,86.3c0,5.3-1.1,10.5-3.2,15.3c-0.9,2.1-2,4.1-3.3,6c-2.6,3.8-5.8,7.3-9.4,10.2c-0.6,0.5-1.3,1.1-2.2,1.8
	c-1.1,0.9-2.4,1.7-3.9,2.7c-2.6,1.7-5.1,3.5-7.4,5.4c-1.4,1.1-2.6,2.4-3.6,3.9c-1.2,2.1-1.9,6.3-1.9,12.4v1h-27v-4.7
	c0-3.7,0.1-6.7,0.3-9.4c0.1-2.4,0.4-4.8,0.8-7.3c0.3-2.1,0.9-4.2,1.9-6c1.8-3,6-7,13-12.3c0.3-0.2,0.6-0.5,0.9-0.7
	c0.3-0.2,0.6-0.4,0.9-0.6c2.4-1.7,4.7-3.7,6.7-5.9c0.6-0.7,1.1-1.4,1.6-2.2l0.1-0.2c1.6-2.8,2.3-5.9,2.2-9.1c0-0.8,0-1.6-0.2-2.4
	c-0.3-3.1-1.8-6-4.1-8.1c-2.5-2.3-5.7-3.6-9.1-3.8c-0.4,0-0.8,0-1.2,0c-1.6,0-3.2,0.2-4.7,0.6c-2.9,0.7-5.5,2.3-7.4,4.6
	c-1,1.2-1.9,2.5-2.6,4c-1.8,3.6-3,8.4-3.5,14.1l-0.1,1L382,92.4l0.1-1c0.5-3.8,1.3-7.6,2.4-11.2c1.6-5.6,4.2-10.9,7.6-15.6
	c1.5-2,3.1-3.9,4.9-5.6c0.4-0.4,0.9-0.9,1.4-1.3c3.1-2.7,6.4-4.9,10.1-6.6l0.3-0.1c6.9-3.2,14.4-4.8,22-4.7c0.8,0,1.7,0,2.6,0.1
	c7.6,0.2,15,2.1,21.7,5.5c3,1.6,5.8,3.5,8.4,5.7c7.2,5.9,11.9,14.4,13,23.7C476.9,82.9,477,84.6,477,86.3z"/>
</svg>
