<?xml version="1.0" encoding="utf-8"?>
<!-- Generator: Adobe Illustrator 24.0.2, SVG Export Plug-In . SVG Version: 6.00 Build 0)  -->
<svg version="1.1" id="b0f35fe8-0104-458a-8f81-ef42473ec9c0"
	 xmlns="http://www.w3.org/2000/svg" xmlns:xlink="http://www.w3.org/1999/xlink" x="0px" y="0px" viewBox="0 0 938 604"
	 style="enable-background:new 0 0 938 604;" xml:space="preserve">
<style type="text/css">
	.st0{fill:#F2F2F2;}
	.st1{fill:#3F3D56;}
	.st2{fill:none;stroke:#3F3D56;stroke-width:5;stroke-miterlimit:10;}
	.st3{fill:#6C63FF;}
</style>
<title>candidate</title>
<path class="st0" d="M680.6,566.7l-4.9-60.6l-13.9,64.1c0,0,0.2,16.2,0.6,33.9h17.8C680.9,583.8,680.6,566.7,680.6,566.7z"/>
<path class="st0" d="M430,588.2c-1.4-5.7-2.3-11.4-2.9-17.2l-1.9-21c-0.8-5.7-1.7-10.8-2.5-15.3c-6.2-31.8-12.6-33-12.6-33
	c-0.3,0.2-0.5,0.4-0.8,0.7c-0.8,0.7-1.5,1.4-2.1,2.2c-10.2,13-17.1,46.6-20.8,68.9c-2,12.3-3,21.2-3,21.2s0.9,3.8,2.2,9.2H432
	C431.9,598.7,431.2,593.4,430,588.2z"/>
<polygon class="st1" points="364.5,521.5 377.5,602.5 666.5,602.5 691.5,439.5 "/>
<polygon class="st1" points="702.5,428.5 705.5,443.5 331.5,533.5 331.5,520.5 "/>
<polygon class="st1" points="544.5,455.5 542.5,472.5 564.5,469.5 555.5,452.5 "/>
<path class="st2" d="M423.5,283.5c0,0,44-3,56,31s40,95,51,104s23,33,21,41"/>
<path class="st3" d="M430,283c0,4.7-5,8.5-13,8.5s-12-3.8-12-8.5s4-8.5,12-8.5S430,278.3,430,283z"/>
</svg>
